<?xml version="1.0" encoding="UTF-8" standalone="no"?>
<!DOCTYPE svg PUBLIC "-//W3C//DTD SVG 1.1//EN"
 "http://www.w3.org/Graphics/SVG/1.1/DTD/svg11.dtd">
<!-- Generated by graphviz version 2.38.0 (20140413.2041)
 -->
<!-- Title: dependencies Pages: 1 -->
<svg width="1744pt" height="548pt"
 viewBox="0.00 0.00 1743.99 548.00" xmlns="http://www.w3.org/2000/svg" xmlns:xlink="http://www.w3.org/1999/xlink">
<g id="graph0" class="graph" transform="scale(1 1) rotate(0) translate(4 544)">
<title>dependencies</title>
<polygon fill="white" stroke="none" points="-4,4 -4,-544 1739.99,-544 1739.99,4 -4,4"/>
<!-- UploadToBigquery -->
<g id="node1" class="node"><title>UploadToBigquery</title>
<ellipse fill="none" stroke="black" cx="944.562" cy="-90" rx="78.0195" ry="18"/>
<text text-anchor="middle" x="944.562" y="-85.8" font-family="Times,serif" font-size="14.00">UploadToBigquery</text>
</g>
<!-- RefreshViews -->
<g id="node18" class="node"><title>RefreshViews</title>
<ellipse fill="none" stroke="black" cx="944.562" cy="-18" rx="59.8577" ry="18"/>
<text text-anchor="middle" x="944.562" y="-13.8" font-family="Times,serif" font-size="14.00">RefreshViews</text>
</g>
<!-- UploadToBigquery&#45;&gt;RefreshViews -->
<g id="edge15" class="edge"><title>UploadToBigquery&#45;&gt;RefreshViews</title>
<path fill="none" stroke="black" d="M944.562,-71.6966C944.562,-63.9827 944.562,-54.7125 944.562,-46.1124"/>
<polygon fill="black" stroke="black" points="948.062,-46.1043 944.562,-36.1043 941.062,-46.1044 948.062,-46.1043"/>
</g>
<!-- ImportMeasures -->
<g id="node21" class="node"><title>ImportMeasures</title>
<ellipse fill="none" stroke="black" cx="1117.56" cy="-18" rx="68.1287" ry="18"/>
<text text-anchor="middle" x="1117.56" y="-13.8" font-family="Times,serif" font-size="14.00">ImportMeasures</text>
</g>
<!-- UploadToBigquery&#45;&gt;ImportMeasures -->
<g id="edge18" class="edge"><title>UploadToBigquery&#45;&gt;ImportMeasures</title>
<path fill="none" stroke="black" d="M981.675,-73.9832C1008.23,-63.2385 1044.12,-48.7151 1072.35,-37.2931"/>
<polygon fill="black" stroke="black" points="1074.03,-40.389 1081.99,-33.3937 1071.41,-33.9001 1074.03,-40.389"/>
</g>
<!-- ImportPatientListSize -->
<g id="node2" class="node"><title>ImportPatientListSize</title>
<ellipse fill="none" stroke="black" cx="598.562" cy="-162" rx="87.9412" ry="18"/>
<text text-anchor="middle" x="598.562" y="-157.8" font-family="Times,serif" font-size="14.00">ImportPatientListSize</text>
</g>
<!-- ImportPatientListSize&#45;&gt;UploadToBigquery -->
<g id="edge1" class="edge"><title>ImportPatientListSize&#45;&gt;UploadToBigquery</title>
<path fill="none" stroke="black" d="M658.831,-148.807C720.031,-136.425 814.569,-117.299 877.955,-104.475"/>
<polygon fill="black" stroke="black" points="878.744,-107.887 887.851,-102.473 877.356,-101.026 878.744,-107.887"/>
</g>
<!-- ImportHscicPractices -->
<g id="node3" class="node"><title>ImportHscicPractices</title>
<ellipse fill="none" stroke="black" cx="833.562" cy="-234" rx="86.4618" ry="18"/>
<text text-anchor="middle" x="833.562" y="-229.8" font-family="Times,serif" font-size="14.00">ImportHscicPractices</text>
</g>
<!-- ImportHscicPractices&#45;&gt;UploadToBigquery -->
<g id="edge2" class="edge"><title>ImportHscicPractices&#45;&gt;UploadToBigquery</title>
<path fill="none" stroke="black" d="M875.192,-218.074C893.254,-209.574 913.087,-197.138 925.562,-180 938.604,-162.085 943.058,-137.086 944.42,-118.142"/>
<polygon fill="black" stroke="black" points="947.921,-118.212 944.9,-108.057 940.929,-117.879 947.921,-118.212"/>
</g>
<!-- ImportHscicPractices&#45;&gt;ImportPatientListSize -->
<g id="edge12" class="edge"><title>ImportHscicPractices&#45;&gt;ImportPatientListSize</title>
<path fill="none" stroke="black" d="M786.289,-218.919C748.648,-207.706 695.818,-191.97 655.787,-180.046"/>
<polygon fill="black" stroke="black" points="656.745,-176.679 646.162,-177.179 654.747,-183.388 656.745,-176.679"/>
</g>
<!-- ImportPrescriptions -->
<g id="node4" class="node"><title>ImportPrescriptions</title>
<ellipse fill="none" stroke="black" cx="1156.56" cy="-162" rx="80.2076" ry="18"/>
<text text-anchor="middle" x="1156.56" y="-157.8" font-family="Times,serif" font-size="14.00">ImportPrescriptions</text>
</g>
<!-- ImportHscicPractices&#45;&gt;ImportPrescriptions -->
<g id="edge21" class="edge"><title>ImportHscicPractices&#45;&gt;ImportPrescriptions</title>
<path fill="none" stroke="black" d="M891.308,-220.485C947.4,-208.329 1032.45,-189.898 1091.04,-177.199"/>
<polygon fill="black" stroke="black" points="1091.9,-180.594 1100.94,-175.055 1090.42,-173.753 1091.9,-180.594"/>
</g>
<!-- ImportDispensingPractices -->
<g id="node26" class="node"><title>ImportDispensingPractices</title>
<ellipse fill="none" stroke="black" cx="810.562" cy="-162" rx="105.782" ry="18"/>
<text text-anchor="middle" x="810.562" y="-157.8" font-family="Times,serif" font-size="14.00">ImportDispensingPractices</text>
</g>
<!-- ImportHscicPractices&#45;&gt;ImportDispensingPractices -->
<g id="edge26" class="edge"><title>ImportHscicPractices&#45;&gt;ImportDispensingPractices</title>
<path fill="none" stroke="black" d="M827.877,-215.697C825.315,-207.898 822.229,-198.509 819.378,-189.829"/>
<polygon fill="black" stroke="black" points="822.629,-188.512 816.182,-180.104 815.979,-190.697 822.629,-188.512"/>
</g>
<!-- ImportPrescriptions&#45;&gt;UploadToBigquery -->
<g id="edge3" class="edge"><title>ImportPrescriptions&#45;&gt;UploadToBigquery</title>
<path fill="none" stroke="black" d="M1113.41,-146.75C1079.76,-135.642 1032.91,-120.17 997.086,-108.343"/>
<polygon fill="black" stroke="black" points="997.889,-104.922 987.296,-105.11 995.695,-111.569 997.889,-104.922"/>
</g>
<!-- ImportCcgDetails -->
<g id="node5" class="node"><title>ImportCcgDetails</title>
<ellipse fill="none" stroke="black" cx="912.562" cy="-378" rx="73.4412" ry="18"/>
<text text-anchor="middle" x="912.562" y="-373.8" font-family="Times,serif" font-size="14.00">ImportCcgDetails</text>
</g>
<!-- ImportCcgDetails&#45;&gt;UploadToBigquery -->
<g id="edge4" class="edge"><title>ImportCcgDetails&#45;&gt;UploadToBigquery</title>
<path fill="none" stroke="black" d="M983.807,-373.36C1109.96,-366.303 1362.35,-349.206 1393.56,-324 1419.8,-302.806 1412.16,-285.295 1417.56,-252 1446.89,-71.2597 1211.71,-140.748 1031.56,-108 1025.05,-106.816 1018.27,-105.551 1011.5,-104.264"/>
<polygon fill="black" stroke="black" points="1012.1,-100.814 1001.62,-102.371 1010.78,-107.69 1012.1,-100.814"/>
</g>
<!-- ImportCcgDetails&#45;&gt;ImportHscicPractices -->
<g id="edge34" class="edge"><title>ImportCcgDetails&#45;&gt;ImportHscicPractices</title>
<path fill="none" stroke="black" d="M903.033,-359.871C889.391,-335.35 864.179,-290.032 848.171,-261.259"/>
<polygon fill="black" stroke="black" points="851.046,-259.226 843.125,-252.189 844.929,-262.63 851.046,-259.226"/>
</g>
<!-- ImportCcgDetails&#45;&gt;ImportPrescriptions -->
<g id="edge24" class="edge"><title>ImportCcgDetails&#45;&gt;ImportPrescriptions</title>
<path fill="none" stroke="black" d="M986.076,-376.694C1097.62,-374.863 1302.86,-365.722 1361.56,-324 1402.69,-294.768 1428.16,-255.338 1396.56,-216 1377.01,-191.656 1301.37,-177.825 1240.17,-170.442"/>
<polygon fill="black" stroke="black" points="1240.43,-166.949 1230.09,-169.269 1239.62,-173.902 1240.43,-166.949"/>
</g>
<!-- ImportPracticeDetails -->
<g id="node6" class="node"><title>ImportPracticeDetails</title>
<ellipse fill="none" stroke="black" cx="719.562" cy="-306" rx="87.9066" ry="18"/>
<text text-anchor="middle" x="719.562" y="-301.8" font-family="Times,serif" font-size="14.00">ImportPracticeDetails</text>
</g>
<!-- ImportCcgDetails&#45;&gt;ImportPracticeDetails -->
<g id="edge8" class="edge"><title>ImportCcgDetails&#45;&gt;ImportPracticeDetails</title>
<path fill="none" stroke="black" d="M873.04,-362.666C843.357,-351.9 802.468,-337.069 770.358,-325.423"/>
<polygon fill="black" stroke="black" points="771.291,-322.039 760.697,-321.919 768.904,-328.619 771.291,-322.039"/>
</g>
<!-- ImportPracticeDetails&#45;&gt;UploadToBigquery -->
<g id="edge5" class="edge"><title>ImportPracticeDetails&#45;&gt;UploadToBigquery</title>
<path fill="none" stroke="black" d="M640.489,-298.18C578.24,-290.979 498.728,-277.082 478.562,-252 457.985,-226.406 493.895,-150.333 501.562,-144 553.956,-100.728 742.622,-91.8752 856.156,-90.5877"/>
<polygon fill="black" stroke="black" points="856.259,-94.0869 866.225,-90.491 856.192,-87.0873 856.259,-94.0869"/>
</g>
<!-- ImportPracticeDetails&#45;&gt;ImportPatientListSize -->
<g id="edge13" class="edge"><title>ImportPracticeDetails&#45;&gt;ImportPatientListSize</title>
<path fill="none" stroke="black" d="M710.681,-287.852C700.505,-269.092 682.625,-238.673 662.562,-216 652.963,-205.152 641.049,-194.66 630.112,-185.915"/>
<polygon fill="black" stroke="black" points="632.033,-182.974 621.994,-179.59 627.731,-188.496 632.033,-182.974"/>
</g>
<!-- ImportPracticeDetails&#45;&gt;ImportHscicPractices -->
<g id="edge35" class="edge"><title>ImportPracticeDetails&#45;&gt;ImportHscicPractices</title>
<path fill="none" stroke="black" d="M746.003,-288.765C761.686,-279.135 781.751,-266.814 798.716,-256.397"/>
<polygon fill="black" stroke="black" points="800.575,-259.363 807.265,-251.147 796.912,-253.397 800.575,-259.363"/>
</g>
<!-- ImportPracticeDetails&#45;&gt;ImportPrescriptions -->
<g id="edge25" class="edge"><title>ImportPracticeDetails&#45;&gt;ImportPrescriptions</title>
<path fill="none" stroke="black" d="M792.584,-295.835C834.341,-288.363 886.591,-275.113 928.562,-252 948.941,-240.778 946.318,-227.463 966.562,-216 1002.11,-195.873 1045.78,-182.995 1082.29,-174.981"/>
<polygon fill="black" stroke="black" points="1083.32,-178.34 1092.38,-172.848 1081.88,-171.491 1083.32,-178.34"/>
</g>
<!-- ImportNhsPostcodeFile -->
<g id="node19" class="node"><title>ImportNhsPostcodeFile</title>
<ellipse fill="none" stroke="black" cx="337.562" cy="-234" rx="94.231" ry="18"/>
<text text-anchor="middle" x="337.562" y="-229.8" font-family="Times,serif" font-size="14.00">ImportNhsPostcodeFile</text>
</g>
<!-- ImportPracticeDetails&#45;&gt;ImportNhsPostcodeFile -->
<g id="edge17" class="edge"><title>ImportPracticeDetails&#45;&gt;ImportNhsPostcodeFile</title>
<path fill="none" stroke="black" d="M656.483,-293.441C589.729,-281.209 484.394,-261.906 413.221,-248.864"/>
<polygon fill="black" stroke="black" points="413.443,-245.347 402.976,-246.987 412.181,-252.232 413.443,-245.347"/>
</g>
<!-- ImportPracticeDetails&#45;&gt;ImportDispensingPractices -->
<g id="edge27" class="edge"><title>ImportPracticeDetails&#45;&gt;ImportDispensingPractices</title>
<path fill="none" stroke="black" d="M719.681,-287.904C720.571,-268.915 724.337,-238.034 738.562,-216 746.556,-203.618 758.525,-193.13 770.421,-184.834"/>
<polygon fill="black" stroke="black" points="772.58,-187.604 779.012,-179.185 768.734,-181.755 772.58,-187.604"/>
</g>
<!-- ImportCcgBoundaries -->
<g id="node7" class="node"><title>ImportCcgBoundaries</title>
<ellipse fill="none" stroke="black" cx="824.562" cy="-450" rx="88.9015" ry="18"/>
<text text-anchor="middle" x="824.562" y="-445.8" font-family="Times,serif" font-size="14.00">ImportCcgBoundaries</text>
</g>
<!-- ImportCcgBoundaries&#45;&gt;ImportCcgDetails -->
<g id="edge29" class="edge"><title>ImportCcgBoundaries&#45;&gt;ImportCcgDetails</title>
<path fill="none" stroke="black" d="M845.417,-432.411C856.924,-423.257 871.384,-411.755 883.935,-401.772"/>
<polygon fill="black" stroke="black" points="886.21,-404.434 891.857,-395.47 881.852,-398.956 886.21,-404.434"/>
</g>
<!-- FetchCcgBoundaries -->
<g id="node8" class="node"><title>FetchCcgBoundaries</title>
<ellipse fill="none" stroke="black" cx="824.562" cy="-522" rx="84.0582" ry="18"/>
<text text-anchor="middle" x="824.562" y="-517.8" font-family="Times,serif" font-size="14.00">FetchCcgBoundaries</text>
</g>
<!-- FetchCcgBoundaries&#45;&gt;ImportCcgBoundaries -->
<g id="edge6" class="edge"><title>FetchCcgBoundaries&#45;&gt;ImportCcgBoundaries</title>
<path fill="none" stroke="black" d="M824.562,-503.697C824.562,-495.983 824.562,-486.712 824.562,-478.112"/>
<polygon fill="black" stroke="black" points="828.062,-478.104 824.562,-468.104 821.062,-478.104 828.062,-478.104"/>
</g>
<!-- FetchBnfCodes -->
<g id="node9" class="node"><title>FetchBnfCodes</title>
<ellipse fill="none" stroke="black" cx="1551.56" cy="-306" rx="65.2563" ry="18"/>
<text text-anchor="middle" x="1551.56" y="-301.8" font-family="Times,serif" font-size="14.00">FetchBnfCodes</text>
</g>
<!-- ImportBnfCodes -->
<g id="node24" class="node"><title>ImportBnfCodes</title>
<ellipse fill="none" stroke="black" cx="1551.56" cy="-234" rx="69.5996" ry="18"/>
<text text-anchor="middle" x="1551.56" y="-229.8" font-family="Times,serif" font-size="14.00">ImportBnfCodes</text>
</g>
<!-- FetchBnfCodes&#45;&gt;ImportBnfCodes -->
<g id="edge32" class="edge"><title>FetchBnfCodes&#45;&gt;ImportBnfCodes</title>
<path fill="none" stroke="black" d="M1551.56,-287.697C1551.56,-279.983 1551.56,-270.712 1551.56,-262.112"/>
<polygon fill="black" stroke="black" points="1555.06,-262.104 1551.56,-252.104 1548.06,-262.104 1555.06,-262.104"/>
</g>
<!-- FetchPracticeDetails -->
<g id="node10" class="node"><title>FetchPracticeDetails</title>
<ellipse fill="none" stroke="black" cx="719.562" cy="-378" rx="83.0632" ry="18"/>
<text text-anchor="middle" x="719.562" y="-373.8" font-family="Times,serif" font-size="14.00">FetchPracticeDetails</text>
</g>
<!-- FetchPracticeDetails&#45;&gt;ImportPracticeDetails -->
<g id="edge7" class="edge"><title>FetchPracticeDetails&#45;&gt;ImportPracticeDetails</title>
<path fill="none" stroke="black" d="M719.562,-359.697C719.562,-351.983 719.562,-342.712 719.562,-334.112"/>
<polygon fill="black" stroke="black" points="723.062,-334.104 719.562,-324.104 716.062,-334.104 723.062,-334.104"/>
</g>
<!-- ConvertHscicPrescriptions -->
<g id="node11" class="node"><title>ConvertHscicPrescriptions</title>
<ellipse fill="none" stroke="black" cx="1282.56" cy="-234" rx="104.821" ry="18"/>
<text text-anchor="middle" x="1282.56" y="-229.8" font-family="Times,serif" font-size="14.00">ConvertHscicPrescriptions</text>
</g>
<!-- ConvertHscicPrescriptions&#45;&gt;ImportPrescriptions -->
<g id="edge22" class="edge"><title>ConvertHscicPrescriptions&#45;&gt;ImportPrescriptions</title>
<path fill="none" stroke="black" d="M1253.02,-216.588C1235.52,-206.864 1213.16,-194.444 1194.38,-184.01"/>
<polygon fill="black" stroke="black" points="1195.93,-180.865 1185.48,-179.068 1192.53,-186.984 1195.93,-180.865"/>
</g>
<!-- FetchPrescribing -->
<g id="node12" class="node"><title>FetchPrescribing</title>
<ellipse fill="none" stroke="black" cx="1282.56" cy="-306" rx="70.0668" ry="18"/>
<text text-anchor="middle" x="1282.56" y="-301.8" font-family="Times,serif" font-size="14.00">FetchPrescribing</text>
</g>
<!-- FetchPrescribing&#45;&gt;ConvertHscicPrescriptions -->
<g id="edge9" class="edge"><title>FetchPrescribing&#45;&gt;ConvertHscicPrescriptions</title>
<path fill="none" stroke="black" d="M1282.56,-287.697C1282.56,-279.983 1282.56,-270.712 1282.56,-262.112"/>
<polygon fill="black" stroke="black" points="1286.06,-262.104 1282.56,-252.104 1279.06,-262.104 1286.06,-262.104"/>
</g>
<!-- FetchAdqs -->
<g id="node13" class="node"><title>FetchAdqs</title>
<ellipse fill="none" stroke="black" cx="1687.56" cy="-234" rx="48.3514" ry="18"/>
<text text-anchor="middle" x="1687.56" y="-229.8" font-family="Times,serif" font-size="14.00">FetchAdqs</text>
</g>
<!-- ImportAdqs -->
<g id="node27" class="node"><title>ImportAdqs</title>
<ellipse fill="none" stroke="black" cx="1619.56" cy="-162" rx="52.6952" ry="18"/>
<text text-anchor="middle" x="1619.56" y="-157.8" font-family="Times,serif" font-size="14.00">ImportAdqs</text>
</g>
<!-- FetchAdqs&#45;&gt;ImportAdqs -->
<g id="edge30" class="edge"><title>FetchAdqs&#45;&gt;ImportAdqs</title>
<path fill="none" stroke="black" d="M1671.79,-216.765C1663.16,-207.882 1652.31,-196.709 1642.73,-186.854"/>
<polygon fill="black" stroke="black" points="1645.2,-184.367 1635.72,-179.633 1640.18,-189.245 1645.2,-184.367"/>
</g>
<!-- ImportHscicChemicals -->
<g id="node14" class="node"><title>ImportHscicChemicals</title>
<ellipse fill="none" stroke="black" cx="1067.56" cy="-234" rx="91.7825" ry="18"/>
<text text-anchor="middle" x="1067.56" y="-229.8" font-family="Times,serif" font-size="14.00">ImportHscicChemicals</text>
</g>
<!-- FetchPrescribingMetadata -->
<g id="node15" class="node"><title>FetchPrescribingMetadata</title>
<ellipse fill="none" stroke="black" cx="1032.56" cy="-306" rx="102.866" ry="18"/>
<text text-anchor="middle" x="1032.56" y="-301.8" font-family="Times,serif" font-size="14.00">FetchPrescribingMetadata</text>
</g>
<!-- FetchPrescribingMetadata&#45;&gt;ImportHscicPractices -->
<g id="edge33" class="edge"><title>FetchPrescribingMetadata&#45;&gt;ImportHscicPractices</title>
<path fill="none" stroke="black" d="M988.891,-289.638C958.407,-278.915 917.587,-264.556 885.443,-253.25"/>
<polygon fill="black" stroke="black" points="886.362,-249.863 875.767,-249.846 884.039,-256.466 886.362,-249.863"/>
</g>
<!-- FetchPrescribingMetadata&#45;&gt;ImportHscicChemicals -->
<g id="edge10" class="edge"><title>FetchPrescribingMetadata&#45;&gt;ImportHscicChemicals</title>
<path fill="none" stroke="black" d="M1041.03,-288.055C1045.06,-280.007 1049.96,-270.205 1054.45,-261.226"/>
<polygon fill="black" stroke="black" points="1057.58,-262.785 1058.92,-252.275 1051.32,-259.654 1057.58,-262.785"/>
</g>
<!-- FetchPatientListSize -->
<g id="node16" class="node"><title>FetchPatientListSize</title>
<ellipse fill="none" stroke="black" cx="570.562" cy="-234" rx="83.0977" ry="18"/>
<text text-anchor="middle" x="570.562" y="-229.8" font-family="Times,serif" font-size="14.00">FetchPatientListSize</text>
</g>
<!-- FetchPatientListSize&#45;&gt;ImportPatientListSize -->
<g id="edge11" class="edge"><title>FetchPatientListSize&#45;&gt;ImportPatientListSize</title>
<path fill="none" stroke="black" d="M577.34,-216.055C580.492,-208.176 584.316,-198.617 587.845,-189.794"/>
<polygon fill="black" stroke="black" points="591.188,-190.86 591.652,-180.275 584.689,-188.26 591.188,-190.86"/>
</g>
<!-- ImportPatientListWeightings -->
<g id="node17" class="node"><title>ImportPatientListWeightings</title>
<ellipse fill="none" stroke="black" cx="112.562" cy="-234" rx="112.625" ry="18"/>
<text text-anchor="middle" x="112.562" y="-229.8" font-family="Times,serif" font-size="14.00">ImportPatientListWeightings</text>
</g>
<!-- ImportPatientListWeightings&#45;&gt;ImportPatientListSize -->
<g id="edge14" class="edge"><title>ImportPatientListWeightings&#45;&gt;ImportPatientListSize</title>
<path fill="none" stroke="black" d="M193.088,-221.402C283.351,-208.401 428.812,-187.45 518.773,-174.492"/>
<polygon fill="black" stroke="black" points="519.522,-177.921 528.921,-173.031 518.524,-170.992 519.522,-177.921"/>
</g>
<!-- FetchNhsPostcodeFile -->
<g id="node20" class="node"><title>FetchNhsPostcodeFile</title>
<ellipse fill="none" stroke="black" cx="337.562" cy="-306" rx="89.8878" ry="18"/>
<text text-anchor="middle" x="337.562" y="-301.8" font-family="Times,serif" font-size="14.00">FetchNhsPostcodeFile</text>
</g>
<!-- FetchNhsPostcodeFile&#45;&gt;ImportNhsPostcodeFile -->
<g id="edge16" class="edge"><title>FetchNhsPostcodeFile&#45;&gt;ImportNhsPostcodeFile</title>
<path fill="none" stroke="black" d="M337.562,-287.697C337.562,-279.983 337.562,-270.712 337.562,-262.112"/>
<polygon fill="black" stroke="black" points="341.062,-262.104 337.562,-252.104 334.062,-262.104 341.062,-262.104"/>
</g>
<!-- ImportMeasureDefinitions -->
<g id="node22" class="node"><title>ImportMeasureDefinitions</title>
<ellipse fill="none" stroke="black" cx="1144.56" cy="-90" rx="103.861" ry="18"/>
<text text-anchor="middle" x="1144.56" y="-85.8" font-family="Times,serif" font-size="14.00">ImportMeasureDefinitions</text>
</g>
<!-- ImportMeasureDefinitions&#45;&gt;ImportMeasures -->
<g id="edge19" class="edge"><title>ImportMeasureDefinitions&#45;&gt;ImportMeasures</title>
<path fill="none" stroke="black" d="M1137.89,-71.6966C1134.85,-63.8132 1131.18,-54.3042 1127.8,-45.5464"/>
<polygon fill="black" stroke="black" points="1131.02,-44.1748 1124.16,-36.1043 1124.49,-46.6939 1131.02,-44.1748"/>
</g>
<!-- FetchPatientListWeightings -->
<g id="node23" class="node"><title>FetchPatientListWeightings</title>
<ellipse fill="none" stroke="black" cx="112.562" cy="-306" rx="108.281" ry="18"/>
<text text-anchor="middle" x="112.562" y="-301.8" font-family="Times,serif" font-size="14.00">FetchPatientListWeightings</text>
</g>
<!-- FetchPatientListWeightings&#45;&gt;ImportPatientListWeightings -->
<g id="edge20" class="edge"><title>FetchPatientListWeightings&#45;&gt;ImportPatientListWeightings</title>
<path fill="none" stroke="black" d="M112.562,-287.697C112.562,-279.983 112.562,-270.712 112.562,-262.112"/>
<polygon fill="black" stroke="black" points="116.062,-262.104 112.562,-252.104 109.062,-262.104 116.062,-262.104"/>
</g>
<!-- ImportBnfCodes&#45;&gt;ImportPrescriptions -->
<g id="edge23" class="edge"><title>ImportBnfCodes&#45;&gt;ImportPrescriptions</title>
<path fill="none" stroke="black" d="M1495.81,-223.119C1425.49,-210.658 1304.51,-189.218 1227.63,-175.594"/>
<polygon fill="black" stroke="black" points="1228,-172.106 1217.55,-173.807 1226.78,-178.999 1228,-172.106"/>
</g>
<!-- ImportBnfCodes&#45;&gt;ImportAdqs -->
<g id="edge31" class="edge"><title>ImportBnfCodes&#45;&gt;ImportAdqs</title>
<path fill="none" stroke="black" d="M1567.68,-216.411C1576.23,-207.606 1586.89,-196.628 1596.33,-186.919"/>
<polygon fill="black" stroke="black" points="1599.11,-189.082 1603.56,-179.47 1594.08,-184.204 1599.11,-189.082"/>
</g>
<!-- FetchCcgDetails -->
<g id="node25" class="node"><title>FetchCcgDetails</title>
<ellipse fill="none" stroke="black" cx="1000.56" cy="-450" rx="69.0978" ry="18"/>
<text text-anchor="middle" x="1000.56" y="-445.8" font-family="Times,serif" font-size="14.00">FetchCcgDetails</text>
</g>
<!-- FetchCcgDetails&#45;&gt;ImportCcgDetails -->
<g id="edge28" class="edge"><title>FetchCcgDetails&#45;&gt;ImportCcgDetails</title>
<path fill="none" stroke="black" d="M980.152,-432.765C968.573,-423.554 953.9,-411.882 941.186,-401.769"/>
<polygon fill="black" stroke="black" points="943.172,-398.876 933.167,-395.39 938.814,-404.354 943.172,-398.876"/>
</g>
</g>
</svg>
