<?xml version="1.0" encoding="UTF-8" standalone="no"?>
<!DOCTYPE svg PUBLIC "-//W3C//DTD SVG 1.1//EN"
 "http://www.w3.org/Graphics/SVG/1.1/DTD/svg11.dtd">
<!-- Generated by graphviz version 2.38.0 (20140413.2041)
 -->
<!-- Title: dependencies Pages: 1 -->
<svg width="1749pt" height="548pt"
 viewBox="0.00 0.00 1749.04 548.00" xmlns="http://www.w3.org/2000/svg" xmlns:xlink="http://www.w3.org/1999/xlink">
<g id="graph0" class="graph" transform="scale(1 1) rotate(0) translate(4 544)">
<title>dependencies</title>
<polygon fill="white" stroke="none" points="-4,4 -4,-544 1745.04,-544 1745.04,4 -4,4"/>
<!-- UploadToBigquery -->
<g id="node1" class="node"><title>UploadToBigquery</title>
<ellipse fill="none" stroke="black" cx="626.329" cy="-90" rx="78.0195" ry="18"/>
<text text-anchor="middle" x="626.329" y="-85.8" font-family="Times,serif" font-size="14.00">UploadToBigquery</text>
</g>
<!-- RefreshViews -->
<g id="node19" class="node"><title>RefreshViews</title>
<ellipse fill="none" stroke="black" cx="626.329" cy="-18" rx="59.8577" ry="18"/>
<text text-anchor="middle" x="626.329" y="-13.8" font-family="Times,serif" font-size="14.00">RefreshViews</text>
</g>
<!-- UploadToBigquery&#45;&gt;RefreshViews -->
<g id="edge16" class="edge"><title>UploadToBigquery&#45;&gt;RefreshViews</title>
<path fill="none" stroke="black" d="M626.329,-71.6966C626.329,-63.9827 626.329,-54.7125 626.329,-46.1124"/>
<polygon fill="black" stroke="black" points="629.829,-46.1043 626.329,-36.1043 622.829,-46.1044 629.829,-46.1043"/>
</g>
<!-- ImportMeasures -->
<g id="node24" class="node"><title>ImportMeasures</title>
<ellipse fill="none" stroke="black" cx="799.329" cy="-18" rx="68.1287" ry="18"/>
<text text-anchor="middle" x="799.329" y="-13.8" font-family="Times,serif" font-size="14.00">ImportMeasures</text>
</g>
<!-- UploadToBigquery&#45;&gt;ImportMeasures -->
<g id="edge29" class="edge"><title>UploadToBigquery&#45;&gt;ImportMeasures</title>
<path fill="none" stroke="black" d="M663.441,-73.9832C689.996,-63.2385 725.89,-48.7151 754.118,-37.2931"/>
<polygon fill="black" stroke="black" points="755.799,-40.389 763.756,-33.3937 753.173,-33.9001 755.799,-40.389"/>
</g>
<!-- ImportPatientListSize -->
<g id="node2" class="node"><title>ImportPatientListSize</title>
<ellipse fill="none" stroke="black" cx="719.329" cy="-162" rx="87.9412" ry="18"/>
<text text-anchor="middle" x="719.329" y="-157.8" font-family="Times,serif" font-size="14.00">ImportPatientListSize</text>
</g>
<!-- ImportPatientListSize&#45;&gt;UploadToBigquery -->
<g id="edge1" class="edge"><title>ImportPatientListSize&#45;&gt;UploadToBigquery</title>
<path fill="none" stroke="black" d="M697.289,-144.411C685.012,-135.17 669.555,-123.536 656.204,-113.487"/>
<polygon fill="black" stroke="black" points="658.305,-110.687 648.21,-107.47 654.095,-116.28 658.305,-110.687"/>
</g>
<!-- ImportHscicPractices -->
<g id="node3" class="node"><title>ImportHscicPractices</title>
<ellipse fill="none" stroke="black" cx="141.329" cy="-234" rx="86.4618" ry="18"/>
<text text-anchor="middle" x="141.329" y="-229.8" font-family="Times,serif" font-size="14.00">ImportHscicPractices</text>
</g>
<!-- ImportHscicPractices&#45;&gt;UploadToBigquery -->
<g id="edge2" class="edge"><title>ImportHscicPractices&#45;&gt;UploadToBigquery</title>
<path fill="none" stroke="black" d="M189.075,-218.938C248.767,-201.367 354.082,-170.394 444.329,-144 486.337,-131.714 533.819,-117.889 569.749,-107.44"/>
<polygon fill="black" stroke="black" points="570.937,-110.739 579.562,-104.586 568.983,-104.018 570.937,-110.739"/>
</g>
<!-- ImportHscicPractices&#45;&gt;ImportPatientListSize -->
<g id="edge13" class="edge"><title>ImportHscicPractices&#45;&gt;ImportPatientListSize</title>
<path fill="none" stroke="black" d="M212.924,-223.932C234.279,-221.294 257.743,-218.462 279.329,-216 431.623,-198.629 470.526,-201.243 622.329,-180 630.213,-178.897 638.439,-177.632 646.621,-176.302"/>
<polygon fill="black" stroke="black" points="647.261,-179.743 656.553,-174.653 646.115,-172.838 647.261,-179.743"/>
</g>
<!-- ImportPrescriptions -->
<g id="node4" class="node"><title>ImportPrescriptions</title>
<ellipse fill="none" stroke="black" cx="533.329" cy="-162" rx="80.2076" ry="18"/>
<text text-anchor="middle" x="533.329" y="-157.8" font-family="Times,serif" font-size="14.00">ImportPrescriptions</text>
</g>
<!-- ImportHscicPractices&#45;&gt;ImportPrescriptions -->
<g id="edge32" class="edge"><title>ImportHscicPractices&#45;&gt;ImportPrescriptions</title>
<path fill="none" stroke="black" d="M204.746,-221.675C275.317,-209.073 389.059,-188.762 462.496,-175.649"/>
<polygon fill="black" stroke="black" points="463.353,-179.051 472.582,-173.848 462.122,-172.16 463.353,-179.051"/>
</g>
<!-- ImportDispensingPractices -->
<g id="node27" class="node"><title>ImportDispensingPractices</title>
<ellipse fill="none" stroke="black" cx="132.329" cy="-162" rx="105.782" ry="18"/>
<text text-anchor="middle" x="132.329" y="-157.8" font-family="Times,serif" font-size="14.00">ImportDispensingPractices</text>
</g>
<!-- ImportHscicPractices&#45;&gt;ImportDispensingPractices -->
<g id="edge37" class="edge"><title>ImportHscicPractices&#45;&gt;ImportDispensingPractices</title>
<path fill="none" stroke="black" d="M139.104,-215.697C138.112,-207.983 136.92,-198.712 135.815,-190.112"/>
<polygon fill="black" stroke="black" points="139.275,-189.576 134.528,-180.104 132.332,-190.469 139.275,-189.576"/>
</g>
<!-- ImportPrescriptions&#45;&gt;UploadToBigquery -->
<g id="edge3" class="edge"><title>ImportPrescriptions&#45;&gt;UploadToBigquery</title>
<path fill="none" stroke="black" d="M555.368,-144.411C567.645,-135.17 583.102,-123.536 596.453,-113.487"/>
<polygon fill="black" stroke="black" points="598.562,-116.28 604.447,-107.47 594.353,-110.687 598.562,-116.28"/>
</g>
<!-- ImportCcgDetails -->
<g id="node5" class="node"><title>ImportCcgDetails</title>
<ellipse fill="none" stroke="black" cx="677.329" cy="-378" rx="73.4412" ry="18"/>
<text text-anchor="middle" x="677.329" y="-373.8" font-family="Times,serif" font-size="14.00">ImportCcgDetails</text>
</g>
<!-- ImportCcgDetails&#45;&gt;UploadToBigquery -->
<g id="edge4" class="edge"><title>ImportCcgDetails&#45;&gt;UploadToBigquery</title>
<path fill="none" stroke="black" d="M748.953,-373.635C981.731,-362.659 1702.2,-328.35 1706.33,-324 1757.61,-270.008 1764.08,-227.455 1636.33,-144 1550.4,-87.8701 815.273,-119.876 713.329,-108 705.995,-107.146 698.354,-106.014 690.779,-104.74"/>
<polygon fill="black" stroke="black" points="691.347,-101.286 680.891,-102.994 690.13,-108.18 691.347,-101.286"/>
</g>
<!-- ImportCcgDetails&#45;&gt;ImportHscicPractices -->
<g id="edge45" class="edge"><title>ImportCcgDetails&#45;&gt;ImportHscicPractices</title>
<path fill="none" stroke="black" d="M604.426,-375.687C456.616,-372.269 132.759,-360.636 99.3286,-324 82.3238,-305.365 98.9076,-278.618 115.991,-259.317"/>
<polygon fill="black" stroke="black" points="118.735,-261.505 122.993,-251.803 113.615,-256.732 118.735,-261.505"/>
</g>
<!-- ImportCcgDetails&#45;&gt;ImportPrescriptions -->
<g id="edge35" class="edge"><title>ImportCcgDetails&#45;&gt;ImportPrescriptions</title>
<path fill="none" stroke="black" d="M622.29,-365.941C598.072,-358.235 571.506,-345.351 555.329,-324 525.812,-285.043 526.171,-225.077 529.487,-190.38"/>
<polygon fill="black" stroke="black" points="533.007,-190.387 530.633,-180.061 526.05,-189.614 533.007,-190.387"/>
</g>
<!-- ImportPracticeDetails -->
<g id="node6" class="node"><title>ImportPracticeDetails</title>
<ellipse fill="none" stroke="black" cx="196.329" cy="-306" rx="87.9066" ry="18"/>
<text text-anchor="middle" x="196.329" y="-301.8" font-family="Times,serif" font-size="14.00">ImportPracticeDetails</text>
</g>
<!-- ImportCcgDetails&#45;&gt;ImportPracticeDetails -->
<g id="edge9" class="edge"><title>ImportCcgDetails&#45;&gt;ImportPracticeDetails</title>
<path fill="none" stroke="black" d="M613.695,-368.937C537.44,-359.108 405.86,-341.621 293.329,-324 285.728,-322.81 277.802,-321.513 269.9,-320.183"/>
<polygon fill="black" stroke="black" points="270.375,-316.714 259.93,-318.487 269.201,-323.615 270.375,-316.714"/>
</g>
<!-- ImportPracticeDetails&#45;&gt;UploadToBigquery -->
<g id="edge5" class="edge"><title>ImportPracticeDetails&#45;&gt;UploadToBigquery</title>
<path fill="none" stroke="black" d="M122.305,-296.128C91.9078,-288.892 58.675,-275.773 36.3286,-252 2.94864,-216.488 -15.6059,-179.925 17.3286,-144 51.781,-106.419 377.632,-95.3944 538.018,-92.2328"/>
<polygon fill="black" stroke="black" points="538.407,-95.7261 548.338,-92.0358 538.273,-88.7274 538.407,-95.7261"/>
</g>
<!-- ImportPracticeDetails&#45;&gt;ImportPatientListSize -->
<g id="edge14" class="edge"><title>ImportPracticeDetails&#45;&gt;ImportPatientListSize</title>
<path fill="none" stroke="black" d="M223.147,-288.718C238.849,-278.771 258.78,-265.418 275.329,-252 293.15,-237.55 291.606,-225.849 312.329,-216 437.604,-156.462 485.072,-199.98 622.329,-180 630.061,-178.874 638.124,-177.609 646.153,-176.289"/>
<polygon fill="black" stroke="black" points="646.993,-179.698 656.278,-174.595 645.838,-172.794 646.993,-179.698"/>
</g>
<!-- ImportPracticeDetails&#45;&gt;ImportHscicPractices -->
<g id="edge46" class="edge"><title>ImportPracticeDetails&#45;&gt;ImportHscicPractices</title>
<path fill="none" stroke="black" d="M183.015,-288.055C176.326,-279.543 168.097,-269.068 160.721,-259.681"/>
<polygon fill="black" stroke="black" points="163.45,-257.49 154.52,-251.789 157.946,-261.815 163.45,-257.49"/>
</g>
<!-- ImportPracticeDetails&#45;&gt;ImportPrescriptions -->
<g id="edge36" class="edge"><title>ImportPracticeDetails&#45;&gt;ImportPrescriptions</title>
<path fill="none" stroke="black" d="M209.867,-288.207C228.838,-265.095 262.853,-225.28 279.329,-216 330.199,-187.346 394.666,-174.121 445.923,-168.046"/>
<polygon fill="black" stroke="black" points="446.439,-171.511 455.99,-166.924 445.664,-164.554 446.439,-171.511"/>
</g>
<!-- ImportNhsPostcodeFile -->
<g id="node23" class="node"><title>ImportNhsPostcodeFile</title>
<ellipse fill="none" stroke="black" cx="655.329" cy="-234" rx="94.231" ry="18"/>
<text text-anchor="middle" x="655.329" y="-229.8" font-family="Times,serif" font-size="14.00">ImportNhsPostcodeFile</text>
</g>
<!-- ImportPracticeDetails&#45;&gt;ImportNhsPostcodeFile -->
<g id="edge28" class="edge"><title>ImportPracticeDetails&#45;&gt;ImportNhsPostcodeFile</title>
<path fill="none" stroke="black" d="M259.942,-293.588C271.061,-291.668 282.525,-289.737 293.329,-288 388.411,-272.711 497.846,-256.941 571.28,-246.623"/>
<polygon fill="black" stroke="black" points="571.981,-250.059 581.398,-245.204 571.009,-243.127 571.981,-250.059"/>
</g>
<!-- ImportPracticeDetails&#45;&gt;ImportDispensingPractices -->
<g id="edge38" class="edge"><title>ImportPracticeDetails&#45;&gt;ImportDispensingPractices</title>
<path fill="none" stroke="black" d="M120.772,-296.659C92.669,-289.469 63.4731,-276.241 46.3286,-252 37.0898,-238.937 38.5283,-229.97 46.3286,-216 54.0439,-202.183 67.0049,-191.521 80.5551,-183.507"/>
<polygon fill="black" stroke="black" points="82.4018,-186.487 89.4954,-178.617 79.0425,-180.345 82.4018,-186.487"/>
</g>
<!-- UploadToStorage -->
<g id="node7" class="node"><title>UploadToStorage</title>
<ellipse fill="none" stroke="black" cx="1348.33" cy="-234" rx="72.222" ry="18"/>
<text text-anchor="middle" x="1348.33" y="-229.8" font-family="Times,serif" font-size="14.00">UploadToStorage</text>
</g>
<!-- UploadToStorage&#45;&gt;UploadToBigquery -->
<g id="edge6" class="edge"><title>UploadToStorage&#45;&gt;UploadToBigquery</title>
<path fill="none" stroke="black" d="M1293.47,-222.21C1163.23,-196.596 835.743,-132.187 693.745,-104.259"/>
<polygon fill="black" stroke="black" points="694.334,-100.808 683.847,-102.312 692.983,-107.676 694.334,-100.808"/>
</g>
<!-- ImportCcgBoundaries -->
<g id="node8" class="node"><title>ImportCcgBoundaries</title>
<ellipse fill="none" stroke="black" cx="796.329" cy="-450" rx="88.9015" ry="18"/>
<text text-anchor="middle" x="796.329" y="-445.8" font-family="Times,serif" font-size="14.00">ImportCcgBoundaries</text>
</g>
<!-- ImportCcgBoundaries&#45;&gt;ImportCcgDetails -->
<g id="edge40" class="edge"><title>ImportCcgBoundaries&#45;&gt;ImportCcgDetails</title>
<path fill="none" stroke="black" d="M768.729,-432.765C752.241,-423.066 731.113,-410.638 713.324,-400.174"/>
<polygon fill="black" stroke="black" points="714.763,-396.959 704.369,-394.906 711.214,-402.993 714.763,-396.959"/>
</g>
<!-- FetchCcgBoundaries -->
<g id="node9" class="node"><title>FetchCcgBoundaries</title>
<ellipse fill="none" stroke="black" cx="1110.33" cy="-522" rx="84.0582" ry="18"/>
<text text-anchor="middle" x="1110.33" y="-517.8" font-family="Times,serif" font-size="14.00">FetchCcgBoundaries</text>
</g>
<!-- FetchCcgBoundaries&#45;&gt;UploadToStorage -->
<g id="edge19" class="edge"><title>FetchCcgBoundaries&#45;&gt;UploadToStorage</title>
<path fill="none" stroke="black" d="M1181.56,-512.243C1216.37,-505.025 1257.14,-491.886 1287.33,-468 1345.26,-422.161 1351.24,-395.36 1370.33,-324 1375.95,-302.983 1369.3,-279.037 1361.87,-261.281"/>
<polygon fill="black" stroke="black" points="1365.04,-259.792 1357.74,-252.112 1358.66,-262.667 1365.04,-259.792"/>
</g>
<!-- FetchCcgBoundaries&#45;&gt;ImportCcgBoundaries -->
<g id="edge7" class="edge"><title>FetchCcgBoundaries&#45;&gt;ImportCcgBoundaries</title>
<path fill="none" stroke="black" d="M1054.19,-508.485C1000.77,-496.577 920.342,-478.646 863.536,-465.983"/>
<polygon fill="black" stroke="black" points="864.092,-462.521 853.57,-463.761 862.569,-469.353 864.092,-462.521"/>
</g>
<!-- FetchBnfCodes -->
<g id="node10" class="node"><title>FetchBnfCodes</title>
<ellipse fill="none" stroke="black" cx="1517.33" cy="-306" rx="65.2563" ry="18"/>
<text text-anchor="middle" x="1517.33" y="-301.8" font-family="Times,serif" font-size="14.00">FetchBnfCodes</text>
</g>
<!-- FetchBnfCodes&#45;&gt;UploadToStorage -->
<g id="edge18" class="edge"><title>FetchBnfCodes&#45;&gt;UploadToStorage</title>
<path fill="none" stroke="black" d="M1482.72,-290.666C1456.98,-280.003 1421.61,-265.354 1393.62,-253.76"/>
<polygon fill="black" stroke="black" points="1394.63,-250.391 1384.05,-249.798 1391.95,-256.858 1394.63,-250.391"/>
</g>
<!-- ImportBnfCodes -->
<g id="node26" class="node"><title>ImportBnfCodes</title>
<ellipse fill="none" stroke="black" cx="1517.33" cy="-234" rx="69.5996" ry="18"/>
<text text-anchor="middle" x="1517.33" y="-229.8" font-family="Times,serif" font-size="14.00">ImportBnfCodes</text>
</g>
<!-- FetchBnfCodes&#45;&gt;ImportBnfCodes -->
<g id="edge43" class="edge"><title>FetchBnfCodes&#45;&gt;ImportBnfCodes</title>
<path fill="none" stroke="black" d="M1517.33,-287.697C1517.33,-279.983 1517.33,-270.712 1517.33,-262.112"/>
<polygon fill="black" stroke="black" points="1520.83,-262.104 1517.33,-252.104 1513.83,-262.104 1520.83,-262.104"/>
</g>
<!-- FetchPracticeDetails -->
<g id="node11" class="node"><title>FetchPracticeDetails</title>
<ellipse fill="none" stroke="black" cx="1134.33" cy="-378" rx="83.0632" ry="18"/>
<text text-anchor="middle" x="1134.33" y="-373.8" font-family="Times,serif" font-size="14.00">FetchPracticeDetails</text>
</g>
<!-- FetchPracticeDetails&#45;&gt;ImportPracticeDetails -->
<g id="edge8" class="edge"><title>FetchPracticeDetails&#45;&gt;ImportPracticeDetails</title>
<path fill="none" stroke="black" d="M1054.1,-373.08C873.433,-364.067 439.149,-341.319 293.329,-324 285.092,-323.022 276.493,-321.804 267.966,-320.472"/>
<polygon fill="black" stroke="black" points="268.444,-317.004 258.014,-318.864 267.327,-323.914 268.444,-317.004"/>
</g>
<!-- FetchPracticeDetails&#45;&gt;UploadToStorage -->
<g id="edge24" class="edge"><title>FetchPracticeDetails&#45;&gt;UploadToStorage</title>
<path fill="none" stroke="black" d="M1215.97,-373.979C1255.36,-368.246 1300.27,-354.704 1329.33,-324 1344.81,-307.637 1348.94,-281.89 1349.56,-262.289"/>
<polygon fill="black" stroke="black" points="1353.06,-262.142 1349.6,-252.131 1346.06,-262.12 1353.06,-262.142"/>
</g>
<!-- ConvertHscicPrescriptions -->
<g id="node12" class="node"><title>ConvertHscicPrescriptions</title>
<ellipse fill="none" stroke="black" cx="872.329" cy="-234" rx="104.821" ry="18"/>
<text text-anchor="middle" x="872.329" y="-229.8" font-family="Times,serif" font-size="14.00">ConvertHscicPrescriptions</text>
</g>
<!-- ConvertHscicPrescriptions&#45;&gt;ImportPrescriptions -->
<g id="edge33" class="edge"><title>ConvertHscicPrescriptions&#45;&gt;ImportPrescriptions</title>
<path fill="none" stroke="black" d="M808.167,-219.751C748.617,-207.455 660.329,-189.224 599.992,-176.765"/>
<polygon fill="black" stroke="black" points="600.685,-173.335 590.184,-174.74 599.27,-180.19 600.685,-173.335"/>
</g>
<!-- FetchPrescribing -->
<g id="node13" class="node"><title>FetchPrescribing</title>
<ellipse fill="none" stroke="black" cx="832.329" cy="-306" rx="70.0668" ry="18"/>
<text text-anchor="middle" x="832.329" y="-301.8" font-family="Times,serif" font-size="14.00">FetchPrescribing</text>
</g>
<!-- FetchPrescribing&#45;&gt;UploadToStorage -->
<g id="edge25" class="edge"><title>FetchPrescribing&#45;&gt;UploadToStorage</title>
<path fill="none" stroke="black" d="M882.759,-293.368C892.221,-291.408 902.053,-289.519 911.329,-288 1051.69,-265.01 1088.24,-270.06 1229.33,-252 1244.95,-250 1261.7,-247.702 1277.56,-245.455"/>
<polygon fill="black" stroke="black" points="1278.43,-248.867 1287.84,-243.99 1277.44,-241.937 1278.43,-248.867"/>
</g>
<!-- FetchPrescribing&#45;&gt;ConvertHscicPrescriptions -->
<g id="edge10" class="edge"><title>FetchPrescribing&#45;&gt;ConvertHscicPrescriptions</title>
<path fill="none" stroke="black" d="M842.012,-288.055C846.611,-280.007 852.212,-270.205 857.342,-261.226"/>
<polygon fill="black" stroke="black" points="860.534,-262.694 862.457,-252.275 854.457,-259.221 860.534,-262.694"/>
</g>
<!-- FetchAdqs -->
<g id="node14" class="node"><title>FetchAdqs</title>
<ellipse fill="none" stroke="black" cx="1649.33" cy="-306" rx="48.3514" ry="18"/>
<text text-anchor="middle" x="1649.33" y="-301.8" font-family="Times,serif" font-size="14.00">FetchAdqs</text>
</g>
<!-- FetchAdqs&#45;&gt;UploadToStorage -->
<g id="edge17" class="edge"><title>FetchAdqs&#45;&gt;UploadToStorage</title>
<path fill="none" stroke="black" d="M1613.24,-293.995C1606.01,-291.911 1598.45,-289.817 1591.33,-288 1531.25,-272.663 1462.11,-257.855 1412.97,-247.809"/>
<polygon fill="black" stroke="black" points="1413.61,-244.367 1403.12,-245.802 1412.22,-251.226 1413.61,-244.367"/>
</g>
<!-- ImportAdqs -->
<g id="node28" class="node"><title>ImportAdqs</title>
<ellipse fill="none" stroke="black" cx="1574.33" cy="-162" rx="52.6952" ry="18"/>
<text text-anchor="middle" x="1574.33" y="-157.8" font-family="Times,serif" font-size="14.00">ImportAdqs</text>
</g>
<!-- FetchAdqs&#45;&gt;ImportAdqs -->
<g id="edge41" class="edge"><title>FetchAdqs&#45;&gt;ImportAdqs</title>
<path fill="none" stroke="black" d="M1640.43,-288.153C1627.46,-263.6 1603.26,-217.773 1588.01,-188.908"/>
<polygon fill="black" stroke="black" points="1590.98,-187.033 1583.22,-179.825 1584.79,-190.302 1590.98,-187.033"/>
</g>
<!-- ImportHscicChemicals -->
<g id="node15" class="node"><title>ImportHscicChemicals</title>
<ellipse fill="none" stroke="black" cx="413.329" cy="-234" rx="91.7825" ry="18"/>
<text text-anchor="middle" x="413.329" y="-229.8" font-family="Times,serif" font-size="14.00">ImportHscicChemicals</text>
</g>
<!-- FetchPrescribingMetadata -->
<g id="node16" class="node"><title>FetchPrescribingMetadata</title>
<ellipse fill="none" stroke="black" cx="405.329" cy="-306" rx="102.866" ry="18"/>
<text text-anchor="middle" x="405.329" y="-301.8" font-family="Times,serif" font-size="14.00">FetchPrescribingMetadata</text>
</g>
<!-- FetchPrescribingMetadata&#45;&gt;ImportHscicPractices -->
<g id="edge44" class="edge"><title>FetchPrescribingMetadata&#45;&gt;ImportHscicPractices</title>
<path fill="none" stroke="black" d="M351.267,-290.666C308.071,-279.212 247.527,-263.159 202.55,-251.233"/>
<polygon fill="black" stroke="black" points="203.19,-247.782 192.627,-248.602 201.396,-254.548 203.19,-247.782"/>
</g>
<!-- FetchPrescribingMetadata&#45;&gt;UploadToStorage -->
<g id="edge26" class="edge"><title>FetchPrescribingMetadata&#45;&gt;UploadToStorage</title>
<path fill="none" stroke="black" d="M486.593,-294.897C508.851,-292.374 532.998,-289.86 555.329,-288 854.276,-263.098 930.775,-281.241 1229.33,-252 1245.58,-250.408 1263.02,-248.201 1279.4,-245.903"/>
<polygon fill="black" stroke="black" points="1280.04,-249.348 1289.44,-244.466 1279.04,-242.418 1280.04,-249.348"/>
</g>
<!-- FetchPrescribingMetadata&#45;&gt;ImportHscicChemicals -->
<g id="edge11" class="edge"><title>FetchPrescribingMetadata&#45;&gt;ImportHscicChemicals</title>
<path fill="none" stroke="black" d="M407.306,-287.697C408.188,-279.983 409.247,-270.712 410.23,-262.112"/>
<polygon fill="black" stroke="black" points="413.716,-262.437 411.374,-252.104 406.761,-261.642 413.716,-262.437"/>
</g>
<!-- FetchPatientListSize -->
<g id="node17" class="node"><title>FetchPatientListSize</title>
<ellipse fill="none" stroke="black" cx="1237.33" cy="-306" rx="83.0977" ry="18"/>
<text text-anchor="middle" x="1237.33" y="-301.8" font-family="Times,serif" font-size="14.00">FetchPatientListSize</text>
</g>
<!-- FetchPatientListSize&#45;&gt;ImportPatientListSize -->
<g id="edge12" class="edge"><title>FetchPatientListSize&#45;&gt;ImportPatientListSize</title>
<path fill="none" stroke="black" d="M1241.5,-287.974C1245.3,-267.864 1247.85,-234.778 1229.33,-216 1200.88,-187.15 954.93,-172.529 815.247,-166.489"/>
<polygon fill="black" stroke="black" points="815.105,-162.98 804.965,-166.052 814.808,-169.974 815.105,-162.98"/>
</g>
<!-- FetchPatientListSize&#45;&gt;UploadToStorage -->
<g id="edge22" class="edge"><title>FetchPatientListSize&#45;&gt;UploadToStorage</title>
<path fill="none" stroke="black" d="M1263.07,-288.765C1278.31,-279.155 1297.8,-266.865 1314.3,-256.462"/>
<polygon fill="black" stroke="black" points="1316.51,-259.201 1323.11,-250.906 1312.78,-253.28 1316.51,-259.201"/>
</g>
<!-- ImportPatientListWeightings -->
<g id="node18" class="node"><title>ImportPatientListWeightings</title>
<ellipse fill="none" stroke="black" cx="1107.33" cy="-234" rx="112.625" ry="18"/>
<text text-anchor="middle" x="1107.33" y="-229.8" font-family="Times,serif" font-size="14.00">ImportPatientListWeightings</text>
</g>
<!-- ImportPatientListWeightings&#45;&gt;ImportPatientListSize -->
<g id="edge15" class="edge"><title>ImportPatientListWeightings&#45;&gt;ImportPatientListSize</title>
<path fill="none" stroke="black" d="M1035.71,-220.079C966.631,-207.616 862.559,-188.841 792.846,-176.263"/>
<polygon fill="black" stroke="black" points="793.28,-172.785 782.818,-174.454 792.038,-179.674 793.28,-172.785"/>
</g>
<!-- FetchCcgDetails -->
<g id="node20" class="node"><title>FetchCcgDetails</title>
<ellipse fill="none" stroke="black" cx="1209.33" cy="-450" rx="69.0978" ry="18"/>
<text text-anchor="middle" x="1209.33" y="-445.8" font-family="Times,serif" font-size="14.00">FetchCcgDetails</text>
</g>
<!-- FetchCcgDetails&#45;&gt;ImportCcgDetails -->
<g id="edge39" class="edge"><title>FetchCcgDetails&#45;&gt;ImportCcgDetails</title>
<path fill="none" stroke="black" d="M1149.08,-441.072C1050.78,-428.138 856.258,-402.543 750.294,-388.601"/>
<polygon fill="black" stroke="black" points="750.694,-385.123 740.322,-387.289 749.78,-392.063 750.694,-385.123"/>
</g>
<!-- FetchCcgDetails&#45;&gt;UploadToStorage -->
<g id="edge20" class="edge"><title>FetchCcgDetails&#45;&gt;UploadToStorage</title>
<path fill="none" stroke="black" d="M1238.75,-433.614C1273.37,-413.641 1329.08,-375.191 1352.33,-324 1361.1,-304.693 1359.33,-280.541 1355.79,-262.27"/>
<polygon fill="black" stroke="black" points="1359.15,-261.277 1353.57,-252.273 1352.32,-262.794 1359.15,-261.277"/>
</g>
<!-- FetchNhsPostcodeFile -->
<g id="node21" class="node"><title>FetchNhsPostcodeFile</title>
<ellipse fill="none" stroke="black" cx="654.329" cy="-306" rx="89.8878" ry="18"/>
<text text-anchor="middle" x="654.329" y="-301.8" font-family="Times,serif" font-size="14.00">FetchNhsPostcodeFile</text>
</g>
<!-- FetchNhsPostcodeFile&#45;&gt;UploadToStorage -->
<g id="edge21" class="edge"><title>FetchNhsPostcodeFile&#45;&gt;UploadToStorage</title>
<path fill="none" stroke="black" d="M717.573,-293.224C729.425,-291.277 741.732,-289.431 753.329,-288 963.891,-262.018 1018.42,-275.015 1229.33,-252 1245.39,-250.247 1262.63,-247.999 1278.85,-245.716"/>
<polygon fill="black" stroke="black" points="1279.4,-249.174 1288.8,-244.295 1278.41,-242.244 1279.4,-249.174"/>
</g>
<!-- FetchNhsPostcodeFile&#45;&gt;ImportNhsPostcodeFile -->
<g id="edge27" class="edge"><title>FetchNhsPostcodeFile&#45;&gt;ImportNhsPostcodeFile</title>
<path fill="none" stroke="black" d="M654.576,-287.697C654.686,-279.983 654.818,-270.712 654.941,-262.112"/>
<polygon fill="black" stroke="black" points="658.441,-262.153 655.084,-252.104 651.442,-262.053 658.441,-262.153"/>
</g>
<!-- FetchPatientListWeightings -->
<g id="node22" class="node"><title>FetchPatientListWeightings</title>
<ellipse fill="none" stroke="black" cx="1028.33" cy="-306" rx="108.281" ry="18"/>
<text text-anchor="middle" x="1028.33" y="-301.8" font-family="Times,serif" font-size="14.00">FetchPatientListWeightings</text>
</g>
<!-- FetchPatientListWeightings&#45;&gt;UploadToStorage -->
<g id="edge23" class="edge"><title>FetchPatientListWeightings&#45;&gt;UploadToStorage</title>
<path fill="none" stroke="black" d="M1091.17,-291.254C1147.57,-278.915 1229.91,-260.905 1286.12,-248.608"/>
<polygon fill="black" stroke="black" points="1286.93,-252.014 1295.95,-246.458 1285.43,-245.176 1286.93,-252.014"/>
</g>
<!-- FetchPatientListWeightings&#45;&gt;ImportPatientListWeightings -->
<g id="edge31" class="edge"><title>FetchPatientListWeightings&#45;&gt;ImportPatientListWeightings</title>
<path fill="none" stroke="black" d="M1047.45,-288.055C1057.45,-279.199 1069.84,-268.219 1080.75,-258.549"/>
<polygon fill="black" stroke="black" points="1083.22,-261.04 1088.38,-251.789 1078.58,-255.801 1083.22,-261.04"/>
</g>
<!-- ImportMeasureDefinitions -->
<g id="node25" class="node"><title>ImportMeasureDefinitions</title>
<ellipse fill="none" stroke="black" cx="826.329" cy="-90" rx="103.861" ry="18"/>
<text text-anchor="middle" x="826.329" y="-85.8" font-family="Times,serif" font-size="14.00">ImportMeasureDefinitions</text>
</g>
<!-- ImportMeasureDefinitions&#45;&gt;ImportMeasures -->
<g id="edge30" class="edge"><title>ImportMeasureDefinitions&#45;&gt;ImportMeasures</title>
<path fill="none" stroke="black" d="M819.654,-71.6966C816.614,-63.8132 812.946,-54.3042 809.568,-45.5464"/>
<polygon fill="black" stroke="black" points="812.79,-44.1748 805.926,-36.1043 806.259,-46.6939 812.79,-44.1748"/>
</g>
<!-- ImportBnfCodes&#45;&gt;ImportPrescriptions -->
<g id="edge34" class="edge"><title>ImportBnfCodes&#45;&gt;ImportPrescriptions</title>
<path fill="none" stroke="black" d="M1465.88,-221.752C1453.93,-219.506 1441.23,-217.407 1429.33,-216 1072.79,-173.838 978.912,-221.788 622.329,-180 614.942,-179.134 607.247,-178.008 599.611,-176.748"/>
<polygon fill="black" stroke="black" points="600.087,-173.279 589.637,-175.024 598.895,-180.176 600.087,-173.279"/>
</g>
<!-- ImportBnfCodes&#45;&gt;ImportAdqs -->
<g id="edge42" class="edge"><title>ImportBnfCodes&#45;&gt;ImportAdqs</title>
<path fill="none" stroke="black" d="M1531.13,-216.055C1538.06,-207.543 1546.59,-197.068 1554.23,-187.681"/>
<polygon fill="black" stroke="black" points="1557.06,-189.753 1560.66,-179.789 1551.63,-185.333 1557.06,-189.753"/>
</g>
</g>
</svg>
